<svg xmlns="http://www.w3.org/2000/svg" xmlns:xlink="http://www.w3.org/1999/xlink" width="1080" zoomAndPan="magnify" viewBox="0 0 810 809.999993" height="1080" preserveAspectRatio="xMidYMid meet" version="1.0"><defs><clipPath id="c728508d6c"><path d="M 276 276 L 711.621094 276 L 711.621094 711.621094 L 276 711.621094 Z M 276 276 " clip-rule="nonzero"/></clipPath><clipPath id="ba64e1c316"><path d="M 98.121094 98.121094 L 478 98.121094 L 478 478 L 98.121094 478 Z M 98.121094 98.121094 " clip-rule="nonzero"/></clipPath></defs><rect x="-81" width="972" fill="#ffffff" y="-80.999999" height="971.999992" fill-opacity="1"/><rect x="-81" width="972" fill="#ffffff" y="-80.999999" height="971.999992" fill-opacity="1"/><path fill="#382a40" d="M 136.074219 609.425781 C 134.15625 609.425781 132.210938 608.988281 130.34375 608.070312 C 124.027344 604.898438 121.472656 597.226562 124.617188 590.910156 L 150.1875 539.765625 C 153.359375 533.449219 161.058594 530.941406 167.347656 534.035156 L 218.492188 559.609375 C 224.808594 562.78125 227.367188 570.453125 224.222656 576.769531 C 221.078125 583.109375 213.40625 585.617188 207.0625 582.496094 L 167.347656 562.652344 L 147.503906 602.367188 C 145.277344 606.839844 140.753906 609.425781 136.074219 609.425781 Z M 136.074219 609.425781 " fill-opacity="1" fill-rule="nonzero"/><path fill="#382a40" d="M 289.507812 686.144531 C 289.484375 686.144531 289.484375 686.144531 289.457031 686.144531 C 209.132812 685.886719 157.964844 616.023438 148.960938 547.15625 C 148.066406 540.148438 152.976562 533.730469 160.007812 532.808594 C 166.554688 531.785156 173.410156 536.796875 174.355469 543.832031 C 181.925781 601.675781 223.914062 660.367188 289.585938 660.570312 C 296.617188 660.59375 302.347656 666.347656 302.320312 673.382812 C 302.296875 680.414062 296.566406 686.144531 289.507812 686.144531 Z M 289.507812 686.144531 " fill-opacity="1" fill-rule="nonzero"/><path fill="#382a40" d="M 647.527344 276.925781 C 645.609375 276.925781 643.667969 276.492188 641.800781 275.570312 L 590.652344 250 C 584.335938 246.828125 581.78125 239.15625 584.925781 232.839844 C 588.097656 226.523438 595.769531 224.015625 602.085938 227.113281 L 641.800781 246.957031 L 661.644531 207.242188 C 664.816406 200.925781 672.488281 198.445312 678.804688 201.511719 C 685.121094 204.683594 687.675781 212.355469 684.53125 218.671875 L 658.957031 269.816406 C 656.734375 274.34375 652.207031 276.925781 647.527344 276.925781 Z M 647.527344 276.925781 " fill-opacity="1" fill-rule="nonzero"/><path fill="#382a40" d="M 647.503906 276.925781 C 641.1875 276.925781 635.6875 272.246094 634.84375 265.804688 C 627.273438 207.957031 585.285156 149.269531 519.613281 149.0625 C 512.582031 149.039062 506.851562 143.285156 506.878906 136.25 C 506.902344 129.21875 512.632812 123.492188 519.664062 123.492188 C 519.691406 123.492188 519.691406 123.492188 519.714844 123.492188 C 600.039062 123.746094 651.210938 193.613281 660.210938 262.480469 C 661.105469 269.484375 656.195312 275.90625 649.164062 276.824219 C 648.628906 276.902344 648.089844 276.925781 647.503906 276.925781 Z M 647.503906 276.925781 " fill-opacity="1" fill-rule="nonzero"/><path fill="#382a40" d="M 430.160156 443.203125 C 430.160156 461.382812 452.535156 477.085938 481.304688 480.742188 L 481.304688 405.660156 C 452.535156 409.316406 430.160156 425.019531 430.160156 443.203125 Z M 430.160156 443.203125 " fill-opacity="1" fill-rule="nonzero"/><path fill="#382a40" d="M 558.023438 545.492188 C 558.023438 527.308594 535.648438 511.609375 506.878906 507.953125 L 506.878906 583.035156 C 535.671875 579.375 558.023438 563.648438 558.023438 545.492188 Z M 558.023438 545.492188 " fill-opacity="1" fill-rule="nonzero"/><g clip-path="url(#c728508d6c)"><path fill="#382a40" d="M 494.089844 276.980469 C 374.230469 276.980469 276.722656 374.488281 276.722656 494.347656 C 276.722656 614.207031 374.230469 711.714844 494.089844 711.714844 C 613.949219 711.714844 711.460938 614.207031 711.460938 494.347656 C 711.460938 374.488281 613.949219 276.980469 494.089844 276.980469 Z M 583.597656 545.492188 C 583.597656 578.199219 550.734375 604.183594 506.878906 608.53125 L 506.878906 622.210938 C 506.878906 629.269531 501.148438 634.996094 494.089844 634.996094 C 487.035156 634.996094 481.304688 629.269531 481.304688 622.210938 L 481.304688 608.53125 C 437.449219 604.183594 404.585938 578.199219 404.585938 545.492188 C 404.585938 538.433594 410.316406 532.707031 417.375 532.707031 C 424.429688 532.707031 430.160156 538.433594 430.160156 545.492188 C 430.160156 563.675781 452.535156 579.375 481.304688 583.035156 L 481.304688 506.238281 C 437.449219 501.890625 404.585938 475.910156 404.585938 443.203125 C 404.585938 410.492188 437.449219 384.511719 481.304688 380.164062 L 481.304688 366.484375 C 481.304688 359.425781 487.035156 353.695312 494.089844 353.695312 C 501.148438 353.695312 506.878906 359.425781 506.878906 366.484375 L 506.878906 380.164062 C 550.734375 384.511719 583.597656 410.492188 583.597656 443.203125 C 583.597656 450.257812 577.867188 455.988281 570.808594 455.988281 C 563.75 455.988281 558.023438 450.257812 558.023438 443.203125 C 558.023438 425.019531 535.648438 409.316406 506.878906 405.660156 L 506.878906 482.457031 C 550.761719 486.804688 583.597656 512.785156 583.597656 545.492188 Z M 583.597656 545.492188 " fill-opacity="1" fill-rule="nonzero"/></g><g clip-path="url(#ba64e1c316)"><path fill="#382a40" d="M 269.101562 403.078125 C 229.105469 396.632812 200.003906 371.699219 200.003906 340.886719 L 200.003906 328.097656 L 187.21875 328.097656 C 180.160156 328.097656 174.433594 322.371094 174.433594 315.3125 C 174.433594 308.253906 180.160156 302.527344 187.21875 302.527344 L 200.003906 302.527344 L 200.003906 276.953125 L 187.21875 276.953125 C 180.160156 276.953125 174.433594 271.226562 174.433594 264.167969 C 174.433594 257.109375 180.160156 251.378906 187.21875 251.378906 L 200.003906 251.378906 L 200.003906 238.59375 C 200.003906 202.742188 239.308594 174.664062 289.507812 174.664062 C 339.707031 174.664062 379.015625 202.742188 379.015625 238.59375 C 379.015625 245.652344 373.285156 251.378906 366.226562 251.378906 C 359.167969 251.378906 353.441406 245.652344 353.441406 238.59375 C 353.441406 217.804688 324.160156 200.234375 289.507812 200.234375 C 254.859375 200.234375 225.578125 217.804688 225.578125 238.59375 L 225.578125 251.378906 L 315.082031 251.378906 C 322.140625 251.378906 327.867188 257.109375 327.867188 264.167969 C 327.867188 271.226562 322.140625 276.953125 315.082031 276.953125 L 225.578125 276.953125 L 225.578125 302.527344 L 315.082031 302.527344 C 322.140625 302.527344 327.867188 308.253906 327.867188 315.3125 C 327.867188 316.464844 327.511719 317.460938 327.230469 318.535156 C 367.019531 280.761719 419.417969 256.164062 477.570312 252.222656 C 460.078125 164.382812 382.441406 97.945312 289.507812 97.945312 C 183.742188 97.945312 97.714844 183.96875 97.714844 289.738281 C 97.714844 382.671875 164.125 460.308594 251.992188 477.800781 C 253.964844 448.929688 261.097656 421.492188 272.273438 396.25 C 271.277344 398.578125 270.046875 400.75 269.101562 403.078125 Z M 269.101562 403.078125 " fill-opacity="1" fill-rule="nonzero"/></g><path fill="#382a40" d="M 280.507812 378.707031 C 278.742188 381.929688 277.414062 385.40625 275.828125 388.730469 C 286.796875 366.125 301.195312 345.515625 318.304688 327.484375 C 317.253906 327.742188 316.234375 328.125 315.082031 328.125 L 225.578125 328.125 L 225.578125 340.910156 C 225.578125 359.859375 249.949219 375.945312 280.507812 378.707031 Z M 280.507812 378.707031 " fill-opacity="1" fill-rule="nonzero"/></svg>